<?xml version="1.0" standalone="no"?>
<!DOCTYPE svg PUBLIC "-//W3C//DTD SVG 20010904//EN"
 "http://www.w3.org/TR/2001/REC-SVG-20010904/DTD/svg10.dtd">
<svg version="1.0" xmlns="http://www.w3.org/2000/svg"
 width="300.000000pt" height="300.000000pt" viewBox="0 0 300.000000 300.000000"
 preserveAspectRatio="xMidYMid meet">
<metadata>
Created by potrace 1.14, written by Peter Selinger 2001-2017
</metadata>
<g transform="translate(0.000000,300.000000) scale(0.100000,-0.100000)"
fill="#000000" stroke="none">
<path d="M1276 2628 c-14 -35 -91 -223 -171 -418 l-144 -355 111 -3 c62 -1
117 -1 124 2 6 2 22 32 35 65 l24 61 168 0 168 0 29 -65 29 -65 121 0 120 0
-15 38 c-9 20 -86 209 -172 420 l-156 382 -122 0 -123 0 -26 -62z m192 -340
l41 -98 -84 0 -83 0 40 100 c22 56 42 99 43 98 2 -2 21 -47 43 -100z"/>
<path d="M615 1743 c-191 -68 -295 -218 -295 -424 0 -286 250 -489 523 -425
88 21 119 38 184 98 110 105 157 248 133 403 -23 149 -109 267 -238 328 -58
27 -80 32 -162 34 -72 3 -107 -1 -145 -14z m219 -256 c49 -38 71 -90 71 -167
0 -85 -35 -148 -98 -179 -53 -26 -70 -26 -124 -2 -108 50 -138 224 -55 323 53
63 141 74 206 25z"/>
<path d="M1260 1340 l0 -421 123 3 122 3 3 418 2 417 -125 0 -125 0 0 -420z"/>
<path d="M1920 1285 l0 -426 113 3 112 3 3 138 3 137 38 0 c38 0 38 0 129
-140 l91 -140 136 0 c74 0 135 2 135 5 0 2 -40 66 -89 142 l-90 137 50 29
c146 83 172 332 48 456 -71 72 -91 76 -401 79 l-278 3 0 -426z m514 189 c21
-21 21 -88 -1 -105 -11 -10 -55 -15 -150 -17 l-133 -4 0 71 0 71 134 0 c109 0
138 -3 150 -16z"/>
<path d="M1590 959 l0 -281 -29 -29 c-63 -63 -146 -21 -165 84 l-7 37 -111 0
-111 0 6 -57 c14 -132 74 -229 172 -278 53 -27 70 -30 150 -30 50 0 111 6 138
14 66 19 128 77 163 153 l29 63 3 303 3 302 -120 0 -121 0 0 -281z"/>
</g>
</svg>
